<?xml version="1.0" encoding="UTF-8"?>
<!DOCTYPE svg PUBLIC "-//W3C//DTD SVG 1.1//EN" "http://www.w3.org/Graphics/SVG/1.1/DTD/svg11.dtd">
<svg xmlns="http://www.w3.org/2000/svg" version="1.1" width="512px" height="512px" style="shape-rendering:geometricPrecision; text-rendering:geometricPrecision; image-rendering:optimizeQuality; fill-rule:evenodd; clip-rule:evenodd" xmlns:xlink="http://www.w3.org/1999/xlink">
<g><path style="opacity:1" fill="#dd1a31" d="M -0.5,-0.5 C 170.167,-0.5 340.833,-0.5 511.5,-0.5C 511.5,170.167 511.5,340.833 511.5,511.5C 340.833,511.5 170.167,511.5 -0.5,511.5C -0.5,340.833 -0.5,170.167 -0.5,-0.5 Z"/></g>
<g><path style="opacity:1" fill="#fefdfd" d="M 236.5,49.5 C 323.16,45.9057 389.326,80.5724 435,153.5C 467.075,214.063 470.075,276.063 444,339.5C 411.041,407.437 357.207,447.604 282.5,460C 208.026,467.629 146.192,443.462 97,387.5C 53.0416,331.56 39.7083,268.893 57,199.5C 78.7493,130.084 123.916,83.2507 192.5,59C 207.12,54.9781 221.787,51.8114 236.5,49.5 Z"/></g>
<g><path style="opacity:1" fill="#929497" d="M 237.5,348.5 C 285.94,352.647 324.106,334.981 352,295.5C 367.774,269.529 372.774,241.529 367,211.5C 353.904,161.706 322.07,132.039 271.5,122.5C 233.717,118.26 201.217,129.26 174,155.5C 161.808,147.402 149.141,140.069 136,133.5C 134.877,130.044 135.71,127.21 138.5,125C 199.063,75.2556 265.063,66.9223 336.5,100C 385.531,126.858 416.031,167.691 428,222.5C 438.765,302.786 410.265,364.619 342.5,408C 297.354,432.187 250.354,436.854 201.5,422C 199.556,419.847 199.056,417.347 200,414.5C 217.389,395.401 229.889,373.401 237.5,348.5 Z"/></g>
<g><path style="opacity:1" fill="#bbbcbf" d="M 271.5,122.5 C 322.07,132.039 353.904,161.706 367,211.5C 372.774,241.529 367.774,269.529 352,295.5C 324.106,334.981 285.94,352.647 237.5,348.5C 237.167,347.833 236.833,347.167 236.5,346.5C 238.34,344.341 239.507,341.675 240,338.5C 246.149,314.619 246.982,290.619 242.5,266.5C 274.848,269.073 300.014,257.073 318,230.5C 336.205,192.512 329.039,160.345 296.5,134C 288.479,129.281 280.146,125.447 271.5,122.5 Z"/></g>
<g><path style="opacity:1" fill="#dd1a31" d="M 242.5,266.5 C 212.176,270.321 187.509,283.987 168.5,307.5C 151.101,328.184 142.267,352.184 142,379.5C 140.136,382.207 137.636,383.041 134.5,382C 90.9319,337.942 73.7653,285.109 83,223.5C 87.693,199.745 96.8596,177.912 110.5,158C 112.5,157.333 114.5,157.333 116.5,158C 127.042,167.62 139.375,170.954 153.5,168C 161.399,165.719 168.399,161.886 174.5,156.5C 211.367,184.205 234.034,220.872 242.5,266.5 Z"/></g>
<g><path style="opacity:1" fill="#bcbdc0" d="M 250.5,162.5 C 268.165,161.913 279.999,169.913 286,186.5C 287.339,213.493 274.506,225.993 247.5,224C 230.925,217.426 223.425,205.259 225,187.5C 228.79,174.209 237.29,165.876 250.5,162.5 Z"/></g>
<g><path style="opacity:1" fill="#fafafa" d="M 250.5,174.5 C 255.629,178.452 256.796,183.452 254,189.5C 250.257,193.259 245.757,194.426 240.5,193C 238.959,191.629 237.625,190.129 236.5,188.5C 234.167,176.833 238.833,172.167 250.5,174.5 Z"/></g>
<g><path style="opacity:1" fill="#221e1f" d="M 250.5,174.5 C 265.232,172.203 273.899,178.536 276.5,193.5C 274.447,208.696 265.78,215.529 250.5,214C 238.329,209.485 233.663,200.985 236.5,188.5C 237.625,190.129 238.959,191.629 240.5,193C 245.757,194.426 250.257,193.259 254,189.5C 256.796,183.452 255.629,178.452 250.5,174.5 Z"/></g>
<g><path style="opacity:1" fill="#231f20" d="M 242.5,266.5 C 246.982,290.619 246.149,314.619 240,338.5C 239.507,341.675 238.34,344.341 236.5,346.5C 208.975,341.744 186.308,328.744 168.5,307.5C 187.509,283.987 212.176,270.321 242.5,266.5 Z"/></g>
</svg>
